<svg xmlns="http://www.w3.org/2000/svg" width="64" height="64" fill="none" viewBox="0 0 32 32"><path fill="#596475" fill-rule="evenodd" d="M30 16c0-7.7-6.3-14-14-14S2 8.3 2 16s6.3 14 14 14 14-6.3 14-14ZM16 27.725a11.687 11.687 0 0 0 10.073-5.734l-10.117-4.154-10.054 4.128c.492.834 1.09 1.608 1.785 2.304A11.723 11.723 0 0 0 16 27.725ZM5.621 21.463A11.732 11.732 0 0 1 4.275 16c0-3.106 1.225-6.081 3.456-8.225a11.681 11.681 0 0 1 7.818-3.404l-1.343 10.492-8.585 6.6Zm10.517-17.1c3.055.035 5.933 1.214 8.13 3.412a11.687 11.687 0 0 1 3.413 8.269c0 1.917-.45 3.768-1.32 5.43l-8.392-6.655-1.831-10.456Z" clip-rule="evenodd"/></svg>